ffmpeg version 0.8.6-6:0.8.6-1ubuntu2, Copyright (c) 2000-2013 the Libav developers
  built on Mar 30 2013 22:20:06 with gcc 4.7.2
*** THIS PROGRAM IS DEPRECATED ***
This program is only provided for compatibility and will be removed in a future release. Please use avconv instead.

Seems stream 0 codec frame rate differs from container frame rate: 30000.00 (30000/1) -> 29.97 (30000/1001)
Input #0, avi, from '../tmp/treta.avi':
  Metadata:
    encoder         : Lavf53.21.1
  Duration: 00:00:05.00, start: 0.000000, bitrate: 5097 kb/s
    Stream #0.0: Video: mpeg4 (Simple Profile), yuv420p, 720x480 [PAR 1:1 DAR 3:2], 29.97 fps, 29.97 tbr, 29.97 tbn, 30k tbc
    Stream #0.1: Audio: ac3, 48000 Hz, stereo, s16, 192 kb/s
[mp3 @ 0x8559a0] max_analyze_duration reached
Input #1, mp3, from '../tmp/treta.mp3':
  Metadata:
    encoder         : Lavf53.21.1
  Duration: 00:00:01.87, start: 0.000000, bitrate: 484 kb/s
    Stream #1.0: Audio: mp3, 48000 Hz, stereo, s16, 192 kb/s
Output #0, avi, to '../tmp/treta_merged.avi':
  Metadata:
    ISFT            : Lavf53.21.1
    Stream #0.0: Video: mpeg4, yuv420p, 720x480 [PAR 1:1 DAR 3:2], q=2-31, 29.97 tbn, 29.97 tbc
    Stream #0.1: Audio: libmp3lame, 48000 Hz, stereo, 192 kb/s
Stream mapping:
  Stream #0.0 -> #0.0
  Stream #1.0 -> #0.1
Press ctrl-c to stop encoding
frame=  150 fps=  0 q=-1.0 Lsize=    3110kB time=5.01 bitrate=5090.6kbits/s    
video:2981kB audio:111kB global headers:0kB muxing overhead 0.598832%
